<svg width="128" height="128" viewBox="0 0 128 128" fill="none" xmlns="http://www.w3.org/2000/svg">
  <rect width="128" height="128" rx="16" fill="#FF6B6B"/>
  <path d="M64 24C42.46 24 25 41.46 25 63C25 80.22 36.28 94.76 52 99.58V88.72C50.14 89.14 48.46 89.14 46.54 88.48C43.72 87.46 41.5 85.12 40.36 81.88C39.64 79.96 38.02 77.8 36.34 77.98L36.1 75.1C39.64 74.8 42.64 77.26 44.44 80.26C45.22 81.7 46.18 82.54 47.38 82.96C48.52 83.38 49.78 83.2 51.28 82.72C51.64 80.02 52.9 79.06 53.86 77.68V77.62C46.24 76.48 43.12 72.82 41.68 69.1C39.76 64.12 40.72 57.7 44.08 53.5C44.14 53.44 44.26 53.26 44.2 53.08C42.52 48.22 44.5 44.56 44.56 44.14C45.94 44.5 46.18 43.78 50.8 46.48L51.7 47.02C52.06 47.26 51.94 47.14 52.54 47.08C55.48 46.3 58.66 45.88 61.78 45.82C64.96 45.88 68.14 46.3 71.14 47.14L71.56 47.2C71.5 47.2 71.68 47.14 71.92 47.02C77.68 43.48 77.5 44.68 78.94 44.08C79 44.5 80.92 48.34 79.3 53.08C78.4 54.76 82.24 58.78 82.24 69.1C80.8 72.82 77.68 76.48 70.06 77.62V77.68C71.32 79.42 72.82 80.26 72.82 84.1V99.58C88.54 94.76 99.82 80.22 99.82 63C99.82 41.46 82.36 24 60.82 24L64 24Z" fill="white"/>
  <circle cx="64" cy="42" r="4" fill="white"/>
  <circle cx="64" cy="64" r="4" fill="white"/>
  <circle cx="64" cy="86" r="4" fill="white"/>
  <path d="M52 42H44C42.9 42 42 42.9 42 44V60C42 61.1 42.9 62 44 62H52" stroke="white" stroke-width="3" stroke-linecap="round"/>
  <path d="M76 42H84C85.1 42 86 42.9 86 44V60C86 61.1 85.1 62 84 62H76" stroke="white" stroke-width="3" stroke-linecap="round"/>
</svg>